<svg version="1.1" id="logo" xmlns="http://www.w3.org/2000/svg" xmlns:xlink="http://www.w3.org/1999/xlink" x="0px" y="0px"
	 width="63.447px" height="33.938px"
	 enable-background="new -387.999 -207.533 633.447 338.938" xml:space="preserve">
<path d="M10.111,44.305L-93.864,49.26c-7.75,1.648-14.035,3.315-17.832,4.964c-11.333,3.512-3.578,8.869,11.913,10.396
	c1.966,0.206,3.943,0.375,5.919,0.581c25.699,2.66,25.68,2.66,56.736,2.352c4.43,0.439,97.102-3.803,75.449,5.731
	c-8.982,3.933-90.682,2.313-129.329,6.921c-1.016,0.131-2.051,0.263-3.021,0.431c-29.384,4.317-86.917,27.554-90.082,50.546
	l90.082-1.303l122.206,1.527c0,0-91.449-33.07-62.946-38.933C-6.259,86.629-21,89.738,27.354,84.727
	c72.948-7.614,71.796-22.084,11.772-23.011c-21.466-0.31-34.409,1.741-106.233-1.124c-52.761-8.495,54.741-10.855,75.523-16.138
	 M229.265,55.882c-13.992-14.947-9.553-21.531-23.17-31.628c-13.599-10.096-26.467-40.402-39.316-65.877
	C153.9-67.088,93.259-115.414,75.97-143.071c-17.251-27.657-37.461-64.463-37.461-64.463
	c-12.073,28.266-38.353,59.387-54.751,85.536c-1.91,3.034-3.55,6.434-5.02,10.077c-0.281-0.646-0.646-1.245-1.049-1.808
	c-9.796-14.647-13.055-13.841-28.485-31.599c-11.337-13.065-13.482-11.408-17.781-15.332c-1.536-1.386-3.306-3.531-5.919-7.333
	c-9.82-14.311-9.82-23.264-13.224-27.676c1.911,7.83-8.733,29.97-8.733,29.97s-0.117,10.086-12.25,23.133
	c-12.138,13.027-5.016,3.578-21.789,24.078c-9.37,11.473-4.467,9.095-10.002,15.688l-8.949-1.227
	c2.88,2.782,14.629,19.162,17.322,22.075c10.78,11.623,14.877,28.901,24.58,45.591c9.857,17.017,15.786,32.012,29.675,43.887
	c4.383,3.737,3.489,7.483,9.309,11.154c20.323,12.671,46.997,23.771,63.18,26.889l15.519-1.273
	C-19.034,33.6-51.144,17.736-68.559-6.783c-0.524-0.759-1.016-1.508-1.531-2.257c0.515-0.3,1.026-0.599,1.531-0.899
	c18.221-10.565,37.079-23.405,40.572-33.032c3.315-9.132,6.893-22.019,8.822-34.615c1.124-4.083,2.173-8.102,3.184-11.885
	c2.164-7.839,4.898-17.504,9.084-24.164c14.142-22.571,32.209-44.186,45.91-67.928c8.935,15.855,18.169,31.58,27.647,46.818
	c11.126,17.785,31.739,36.9,46.19,51.192C123.987-72.53,150.557-35.17,157.713-21c32.517,53.768,29.772,79.288,42.688,91.922
	c7.773,7.596,20.268,8.317,45.048,4.692C245.43,75.624,243.219,70.801,229.265,55.882z M-58.355-135.578
	c-3.508-3.025-7.039-5.891-10.232-8.392c-6.041-4.748-10.99-8.194-13.042-9.159c-3.002,5.76-6.668,11.257-19.602,15.434
	c0.14-0.964,18.305-31.571,18.586-37.256c2.913,7.624,8.363,15.014,14.067,21.41c6.799,7.539,13.974,13.665,17.973,17.11
	c7.357,6.35,14.685,11.753,14.685,11.753S-48.133-126.765-58.355-135.578z"/>
<path d="M-296.399-35.142c42.426-38.239,54.816-82.145,89.746-130.096l-2.168-30.804c-15.804,26.664-51.145,98.731-84.856,133.253
	c-12.349,7.81-16.226,5.956-22.037,13.327c-23.985,30.447-43.278,102.336-72.283,119.158c35.715-11.82,85.643-9.693,123.092-10.443
	c-25.067-8.953-55.402-12.315-81.888-14.021C-329.37,27.569-310.747-22.208-296.399-35.142z"/>
<path d="M-162.276-53.637c-38.295-37.996-24.495-35.635-51.613-69.96c4.631,15.304,5.38,24.004,8.513,38.736
	c2.617,12.278-19.11,29.708-3.605,36.675c9.927,4.468,20.449,11.857,23.26,21.616c2.799,9.788-10.092,28.472-21.878,30.719
	c-11.787,2.229-14.021,7.529-8.411,11.164c8.701,5.628-24.636,1.488-43.048,14.029c11.314-5.947,56.362-5.329,56.025-2.183
	c-13.81,2.389-21.387,7.09-29.375,7.877c-29.028,2.855-29.521-5.404-46.177,2.481c13.158-3.024,50.77,12.081,84.402,3.325
	c33.674-8.785,33.051-1.827,48.223,1.666c12.812,2.932,78.987-5.137,92.375-4.106C-85.312,29.6-115.851-9.665-162.276-53.637z"/>
<path d="M143.849-8.667c-14.944-38.985-32.022-43.804-54.206-71.941c-24.303-30.828-50.834-68.669-50.834-68.669
	s19.988,28.953,20.645,60.201c0.597,31.072-6.181,21.923,15.894,50.699c23.294,30.366,48.647,62.362-23.395,94.78
	c36.766-18.181,119.462-3.339,119.462-3.339C156.412,27.964,150.374,8.361,143.849-8.667z"/>
<path d="M1.135,44.924c-29.95-6.453-62.604-19.097-78.689-46.331c-9.562-16.418-25.329-44.721-37.035-57.355
	c-9.909-10.705-34.049-51.866-44.617-68.696c-14.297-22.805-37.163-49.909-47.671-74.521c-5.601,10.199-2.688,19.602-1.747,31.786
	c11.913,20.698,26.069,35.102,38.399,54.751c11.491,18.301,30.803,57.411,44.608,72.311c47.423,51.632,80.155,89.32,114.175,88.935
	L1.135,44.924z"/>
</svg>
